<svg xmlns="http://www.w3.org/2000/svg" xmlns:xlink="http://www.w3.org/1999/xlink" width="200" zoomAndPan="magnify" viewBox="0 0 150 149.999998" height="200" preserveAspectRatio="xMidYMid meet" version="1.0"><defs><g/><clipPath id="6f52e17028"><path d="M 27.683594 25.984375 L 122.316406 25.984375 L 122.316406 124 L 27.683594 124 Z M 27.683594 25.984375 " clip-rule="nonzero"/></clipPath><clipPath id="6917b82a5e"><path d="M 59.246094 121.28125 C 64.097656 122.929688 69.613281 124.015625 75.027344 124.015625 C 80.4375 124.015625 85.648438 123.085938 90.449219 121.4375 C 90.550781 121.382812 90.652344 121.382812 90.753906 121.332031 C 108.78125 114.734375 122.0625 97.308594 122.316406 77.351562 L 122.316406 25.984375 L 27.683594 25.984375 L 27.683594 77.3125 C 27.9375 97.410156 41.011719 114.835938 59.246094 121.28125 Z M 59.246094 121.28125 " clip-rule="nonzero"/></clipPath><clipPath id="32695e5475"><path d="M 27.683594 25.988281 L 122.183594 25.988281 L 122.183594 124.234375 L 27.683594 124.234375 Z M 27.683594 25.988281 " clip-rule="nonzero"/></clipPath><clipPath id="4b854e4d2d"><path d="M 59.242188 121.28125 C 64.09375 122.929688 69.609375 124.011719 75.023438 124.011719 C 80.4375 124.011719 85.644531 123.082031 90.445312 121.433594 C 90.546875 121.382812 90.652344 121.382812 90.753906 121.332031 C 108.78125 114.730469 122.058594 97.304688 122.3125 77.351562 L 122.3125 25.988281 L 27.683594 25.988281 L 27.683594 77.3125 C 27.9375 97.410156 41.011719 114.835938 59.242188 121.28125 Z M 59.242188 121.28125 " clip-rule="nonzero"/></clipPath><clipPath id="e74b005628"><path d="M 61.394531 107.546875 L 90.984375 107.546875 L 90.984375 116.875 L 61.394531 116.875 Z M 61.394531 107.546875 " clip-rule="nonzero"/></clipPath><clipPath id="6900629a74"><path d="M 76.179688 107.546875 C 68.015625 107.546875 61.394531 109.636719 61.394531 112.210938 C 61.394531 114.789062 68.015625 116.875 76.179688 116.875 C 84.34375 116.875 90.960938 114.789062 90.960938 112.210938 C 90.960938 109.636719 84.34375 107.546875 76.179688 107.546875 Z M 76.179688 107.546875 " clip-rule="nonzero"/></clipPath><clipPath id="6e1659f18b"><path d="M 74 75 L 103 75 L 103 105 L 74 105 Z M 74 75 " clip-rule="nonzero"/></clipPath><clipPath id="9bcad63d7a"><path d="M 74.171875 76.175781 L 101.101562 74.1875 L 103.195312 102.613281 L 76.269531 104.597656 Z M 74.171875 76.175781 " clip-rule="nonzero"/></clipPath><clipPath id="63f5fa4dbd"><path d="M 74.171875 76.175781 L 101.101562 74.1875 L 103.195312 102.613281 L 76.269531 104.597656 Z M 74.171875 76.175781 " clip-rule="nonzero"/></clipPath><clipPath id="bbc99f8317"><path d="M 75 75 L 103 75 L 103 104 L 75 104 Z M 75 75 " clip-rule="nonzero"/></clipPath><clipPath id="9539a3df5c"><path d="M 74.171875 76.175781 L 101.101562 74.1875 L 103.195312 102.613281 L 76.269531 104.597656 Z M 74.171875 76.175781 " clip-rule="nonzero"/></clipPath><clipPath id="3929f71ef5"><path d="M 74.171875 76.175781 L 101.101562 74.1875 L 103.195312 102.613281 L 76.269531 104.597656 Z M 74.171875 76.175781 " clip-rule="nonzero"/></clipPath><clipPath id="21ef20801b"><path d="M 75 76 L 93 76 L 93 91 L 75 91 Z M 75 76 " clip-rule="nonzero"/></clipPath><clipPath id="12005ca41d"><path d="M 74.171875 76.175781 L 101.101562 74.1875 L 103.195312 102.613281 L 76.269531 104.597656 Z M 74.171875 76.175781 " clip-rule="nonzero"/></clipPath><clipPath id="4aeb76b778"><path d="M 74.171875 76.175781 L 101.101562 74.1875 L 103.195312 102.613281 L 76.269531 104.597656 Z M 74.171875 76.175781 " clip-rule="nonzero"/></clipPath><clipPath id="09c931724e"><path d="M 77 80 L 96 80 L 96 100 L 77 100 Z M 77 80 " clip-rule="nonzero"/></clipPath><clipPath id="ceb2ab5fe0"><path d="M 74.171875 76.175781 L 101.101562 74.1875 L 103.195312 102.613281 L 76.269531 104.597656 Z M 74.171875 76.175781 " clip-rule="nonzero"/></clipPath><clipPath id="c1f0bf40b0"><path d="M 74.171875 76.175781 L 101.101562 74.1875 L 103.195312 102.613281 L 76.269531 104.597656 Z M 74.171875 76.175781 " clip-rule="nonzero"/></clipPath><clipPath id="a0b7b9002b"><path d="M 94 84 L 102 84 L 102 98 L 94 98 Z M 94 84 " clip-rule="nonzero"/></clipPath><clipPath id="8dcf3fac3c"><path d="M 74.171875 76.175781 L 101.101562 74.1875 L 103.195312 102.613281 L 76.269531 104.597656 Z M 74.171875 76.175781 " clip-rule="nonzero"/></clipPath><clipPath id="a3403151bc"><path d="M 74.171875 76.175781 L 101.101562 74.1875 L 103.195312 102.613281 L 76.269531 104.597656 Z M 74.171875 76.175781 " clip-rule="nonzero"/></clipPath><clipPath id="80d4a4f018"><path d="M 78 99 L 96 99 L 96 103 L 78 103 Z M 78 99 " clip-rule="nonzero"/></clipPath><clipPath id="a4f4b63e1b"><path d="M 74.171875 76.175781 L 101.101562 74.1875 L 103.195312 102.613281 L 76.269531 104.597656 Z M 74.171875 76.175781 " clip-rule="nonzero"/></clipPath><clipPath id="0820af76de"><path d="M 74.171875 76.175781 L 101.101562 74.1875 L 103.195312 102.613281 L 76.269531 104.597656 Z M 74.171875 76.175781 " clip-rule="nonzero"/></clipPath><clipPath id="ff3a4c38c4"><path d="M 47 75 L 76 75 L 76 105 L 47 105 Z M 47 75 " clip-rule="nonzero"/></clipPath><clipPath id="83a11d9b2d"><path d="M 48.902344 74.273438 L 75.832031 76.175781 L 73.828125 104.601562 L 46.894531 102.703125 Z M 48.902344 74.273438 " clip-rule="nonzero"/></clipPath><clipPath id="279b3e7828"><path d="M 75.738281 76.167969 L 48.808594 74.265625 L 46.800781 102.695312 L 73.734375 104.597656 Z M 75.738281 76.167969 " clip-rule="nonzero"/></clipPath><clipPath id="2fffd3dc09"><path d="M 47 75 L 75 75 L 75 104 L 47 104 Z M 47 75 " clip-rule="nonzero"/></clipPath><clipPath id="0c6a797026"><path d="M 48.902344 74.273438 L 75.832031 76.175781 L 73.828125 104.601562 L 46.894531 102.703125 Z M 48.902344 74.273438 " clip-rule="nonzero"/></clipPath><clipPath id="d7786839a1"><path d="M 75.738281 76.167969 L 48.808594 74.265625 L 46.800781 102.695312 L 73.734375 104.597656 Z M 75.738281 76.167969 " clip-rule="nonzero"/></clipPath><clipPath id="970fd9f342"><path d="M 57 76 L 75 76 L 75 91 L 57 91 Z M 57 76 " clip-rule="nonzero"/></clipPath><clipPath id="1fb8cf9e7d"><path d="M 48.902344 74.273438 L 75.832031 76.175781 L 73.828125 104.601562 L 46.894531 102.703125 Z M 48.902344 74.273438 " clip-rule="nonzero"/></clipPath><clipPath id="f17e070e2f"><path d="M 75.738281 76.167969 L 48.808594 74.265625 L 46.800781 102.695312 L 73.734375 104.597656 Z M 75.738281 76.167969 " clip-rule="nonzero"/></clipPath><clipPath id="ea9601ec42"><path d="M 54 80 L 73 80 L 73 100 L 54 100 Z M 54 80 " clip-rule="nonzero"/></clipPath><clipPath id="c519d024e4"><path d="M 48.902344 74.273438 L 75.832031 76.175781 L 73.828125 104.601562 L 46.894531 102.703125 Z M 48.902344 74.273438 " clip-rule="nonzero"/></clipPath><clipPath id="c8ae5a994a"><path d="M 75.738281 76.167969 L 48.808594 74.265625 L 46.800781 102.695312 L 73.734375 104.597656 Z M 75.738281 76.167969 " clip-rule="nonzero"/></clipPath><clipPath id="076273acf4"><path d="M 48 84 L 56 84 L 56 98 L 48 98 Z M 48 84 " clip-rule="nonzero"/></clipPath><clipPath id="e175ca7014"><path d="M 48.902344 74.273438 L 75.832031 76.175781 L 73.828125 104.601562 L 46.894531 102.703125 Z M 48.902344 74.273438 " clip-rule="nonzero"/></clipPath><clipPath id="bbbc82bd3f"><path d="M 75.738281 76.167969 L 48.808594 74.265625 L 46.800781 102.695312 L 73.734375 104.597656 Z M 75.738281 76.167969 " clip-rule="nonzero"/></clipPath><clipPath id="6ecfc49365"><path d="M 54 99 L 72 99 L 72 103 L 54 103 Z M 54 99 " clip-rule="nonzero"/></clipPath><clipPath id="4d7cf2e45c"><path d="M 48.902344 74.273438 L 75.832031 76.175781 L 73.828125 104.601562 L 46.894531 102.703125 Z M 48.902344 74.273438 " clip-rule="nonzero"/></clipPath><clipPath id="99600d04f1"><path d="M 75.738281 76.167969 L 48.808594 74.265625 L 46.800781 102.695312 L 73.734375 104.597656 Z M 75.738281 76.167969 " clip-rule="nonzero"/></clipPath><clipPath id="bb47711a7a"><path d="M 35.671875 62.042969 L 39.421875 62.042969 L 39.421875 65.792969 L 35.671875 65.792969 Z M 35.671875 62.042969 " clip-rule="nonzero"/></clipPath><clipPath id="a373f56b20"><path d="M 110.871094 62.042969 L 114.621094 62.042969 L 114.621094 65.792969 L 110.871094 65.792969 Z M 110.871094 62.042969 " clip-rule="nonzero"/></clipPath><clipPath id="01c4ac519e"><path d="M 37.398438 86.410156 L 44 86.410156 L 44 93.160156 L 37.398438 93.160156 Z M 37.398438 86.410156 " clip-rule="nonzero"/></clipPath><clipPath id="02a4b92f5d"><path d="M 106.074219 86.410156 L 112.824219 86.410156 L 112.824219 93.160156 L 106.074219 93.160156 Z M 106.074219 86.410156 " clip-rule="nonzero"/></clipPath></defs><rect x="-15" width="180" fill="#ffffff" y="-15" height="179.999997" fill-opacity="1"/><rect x="-15" width="180" fill="#ffffff" y="-15" height="179.999997" fill-opacity="1"/><g clip-path="url(#6f52e17028)"><g clip-path="url(#6917b82a5e)"><path fill="#e4c50e" d="M 27.683594 25.984375 L 122.316406 25.984375 L 122.316406 123.945312 L 27.683594 123.945312 Z M 27.683594 25.984375 " fill-opacity="1" fill-rule="nonzero"/></g></g><g clip-path="url(#32695e5475)"><g clip-path="url(#4b854e4d2d)"><path stroke-linecap="butt" transform="matrix(0.75, 0, 0, 0.75, 27.683979, 25.987127)" fill="none" stroke-linejoin="miter" d="M 42.077611 127.05883 C 48.546361 129.256747 55.900527 130.699455 63.119277 130.699455 C 70.338027 130.699455 77.280736 129.459872 83.681777 127.261955 C 83.817194 127.194247 83.957819 127.194247 84.093236 127.126538 C 108.129694 118.324455 125.832819 95.09008 126.17136 68.485914 L 126.17136 0.00153894 L -0.00051398 0.00153894 L -0.00051398 68.43383 C 0.338028 95.230705 17.770319 118.46508 42.077611 127.05883 Z M 42.077611 127.05883 " stroke="#502c27" stroke-width="4" stroke-opacity="1" stroke-miterlimit="4"/></g></g><g fill="#502c27" fill-opacity="1"><g transform="translate(46.692527, 44.059576)"><g><path d="M 0.546875 -6.578125 C 0.546875 -8.910156 1.023438 -10.617188 1.984375 -11.703125 C 2.953125 -12.796875 4.421875 -13.34375 6.390625 -13.34375 C 7.429688 -13.34375 8.3125 -13.210938 9.03125 -12.953125 C 9.75 -12.691406 10.300781 -12.382812 10.6875 -12.03125 L 10.6875 -8.953125 L 8.71875 -8.953125 C 8.675781 -9.703125 8.453125 -10.234375 8.046875 -10.546875 C 7.640625 -10.859375 7.050781 -11.015625 6.28125 -11.015625 C 5.320312 -11.015625 4.597656 -10.675781 4.109375 -10 C 3.617188 -9.332031 3.375 -8.191406 3.375 -6.578125 C 3.375 -4.960938 3.617188 -3.816406 4.109375 -3.140625 C 4.597656 -2.460938 5.320312 -2.125 6.28125 -2.125 C 7.019531 -2.125 7.597656 -2.28125 8.015625 -2.59375 C 8.441406 -2.90625 8.675781 -3.441406 8.71875 -4.203125 L 10.6875 -4.203125 L 10.6875 -1.125 C 10.300781 -0.78125 9.75 -0.472656 9.03125 -0.203125 C 8.3125 0.0546875 7.429688 0.1875 6.390625 0.1875 C 4.410156 0.1875 2.941406 -0.351562 1.984375 -1.4375 C 1.023438 -2.519531 0.546875 -4.234375 0.546875 -6.578125 Z M 0.546875 -6.578125 "/></g></g></g><g fill="#502c27" fill-opacity="1"><g transform="translate(57.877442, 44.059576)"><g><path d="M 11.921875 -1.921875 L 11.921875 0 C 11.921875 0 11.785156 0.03125 11.515625 0.09375 C 11.253906 0.15625 10.867188 0.1875 10.359375 0.1875 C 9.628906 0.1875 9.0625 0.046875 8.65625 -0.234375 C 8.257812 -0.523438 7.960938 -0.988281 7.765625 -1.625 L 6.78125 -4.234375 C 6.65625 -4.585938 6.476562 -4.84375 6.25 -5 C 6.019531 -5.15625 5.648438 -5.234375 5.140625 -5.234375 L 4.421875 -5.234375 L 4.421875 -2.78125 C 4.421875 -2.425781 4.472656 -2.203125 4.578125 -2.109375 C 4.679688 -2.015625 4.910156 -1.96875 5.265625 -1.96875 L 5.265625 0 L 0.75 0 L 0.75 -1.96875 C 1.113281 -1.96875 1.34375 -2.015625 1.4375 -2.109375 C 1.539062 -2.203125 1.59375 -2.425781 1.59375 -2.78125 L 1.59375 -10.375 C 1.59375 -10.738281 1.539062 -10.960938 1.4375 -11.046875 C 1.34375 -11.140625 1.113281 -11.1875 0.75 -11.1875 L 0.75 -13.15625 L 6.65625 -13.15625 C 8.019531 -13.15625 9.039062 -12.84375 9.71875 -12.21875 C 10.40625 -11.601562 10.75 -10.648438 10.75 -9.359375 C 10.75 -8.492188 10.59375 -7.785156 10.28125 -7.234375 C 9.976562 -6.691406 9.519531 -6.289062 8.90625 -6.03125 C 9.050781 -5.863281 9.175781 -5.675781 9.28125 -5.46875 C 9.394531 -5.269531 9.488281 -5.054688 9.5625 -4.828125 L 10.390625 -2.75 C 10.515625 -2.394531 10.664062 -2.164062 10.84375 -2.0625 C 11.019531 -1.96875 11.378906 -1.921875 11.921875 -1.921875 Z M 4.421875 -10.921875 L 4.421875 -7.5 L 6.109375 -7.5 C 6.722656 -7.5 7.171875 -7.628906 7.453125 -7.890625 C 7.742188 -8.148438 7.890625 -8.582031 7.890625 -9.1875 C 7.890625 -10.34375 7.296875 -10.921875 6.109375 -10.921875 Z M 4.421875 -10.921875 "/></g></g></g><g fill="#502c27" fill-opacity="1"><g transform="translate(70.14746, 44.059576)"><g><path d="M 2.34375 -13.15625 L 7.59375 -13.15625 L 10.25 -2.921875 C 10.40625 -2.492188 10.546875 -2.226562 10.671875 -2.125 C 10.804688 -2.019531 11.078125 -1.96875 11.484375 -1.96875 L 11.484375 0 L 6.59375 0 L 6.59375 -1.96875 C 6.882812 -1.96875 7.097656 -1.988281 7.234375 -2.03125 C 7.367188 -2.082031 7.4375 -2.195312 7.4375 -2.375 C 7.4375 -2.445312 7.421875 -2.535156 7.390625 -2.640625 C 7.359375 -2.753906 7.320312 -2.882812 7.28125 -3.03125 L 6.953125 -4.453125 L 4.390625 -4.453125 L 4.046875 -3.03125 C 3.953125 -2.738281 3.90625 -2.507812 3.90625 -2.34375 C 3.90625 -2.175781 3.96875 -2.070312 4.09375 -2.03125 C 4.21875 -1.988281 4.425781 -1.96875 4.71875 -1.96875 L 4.71875 0 L 0.265625 0 L 0.265625 -1.96875 C 0.671875 -1.96875 0.941406 -2.019531 1.078125 -2.125 C 1.222656 -2.226562 1.363281 -2.492188 1.5 -2.921875 L 3.609375 -11.171875 C 3.429688 -11.179688 3.238281 -11.1875 3.03125 -11.1875 C 2.820312 -11.1875 2.59375 -11.1875 2.34375 -11.1875 Z M 5.671875 -10.046875 L 4.78125 -6.234375 L 6.5625 -6.234375 L 5.921875 -9.125 C 5.878906 -9.320312 5.84375 -9.492188 5.8125 -9.640625 C 5.78125 -9.785156 5.734375 -9.921875 5.671875 -10.046875 Z M 5.671875 -10.046875 "/></g></g></g><g fill="#502c27" fill-opacity="1"><g transform="translate(81.854058, 44.059576)"><g><path d="M 10.765625 -13.15625 L 10.765625 -8.8125 L 8.8125 -8.8125 C 8.8125 -9.425781 8.769531 -9.875 8.6875 -10.15625 C 8.613281 -10.4375 8.429688 -10.613281 8.140625 -10.6875 C 7.859375 -10.769531 7.40625 -10.8125 6.78125 -10.8125 L 4.453125 -10.8125 L 4.453125 -7.1875 L 7.78125 -7.1875 L 7.78125 -4.84375 L 4.453125 -4.84375 L 4.453125 -2.78125 C 4.453125 -2.425781 4.503906 -2.203125 4.609375 -2.109375 C 4.710938 -2.015625 4.9375 -1.96875 5.28125 -1.96875 L 5.28125 0 L 0.796875 0 L 0.796875 -1.96875 C 1.160156 -1.96875 1.382812 -2.015625 1.46875 -2.109375 C 1.5625 -2.203125 1.609375 -2.425781 1.609375 -2.78125 L 1.609375 -10.375 C 1.609375 -10.738281 1.5625 -10.960938 1.46875 -11.046875 C 1.382812 -11.140625 1.160156 -11.1875 0.796875 -11.1875 L 0.796875 -13.15625 Z M 10.765625 -13.15625 "/></g></g></g><g fill="#502c27" fill-opacity="1"><g transform="translate(92.976373, 44.059576)"><g><path d="M 0.375 -13.15625 L 9.953125 -13.15625 L 9.953125 -8.8125 L 8.25 -8.8125 C 8.25 -9.394531 8.21875 -9.828125 8.15625 -10.109375 C 8.09375 -10.398438 7.945312 -10.59375 7.71875 -10.6875 C 7.488281 -10.78125 7.113281 -10.828125 6.59375 -10.828125 L 6.59375 -2.78125 C 6.59375 -2.425781 6.640625 -2.203125 6.734375 -2.109375 C 6.835938 -2.015625 7.0625 -1.96875 7.40625 -1.96875 L 7.40625 0 L 2.921875 0 L 2.921875 -1.96875 C 3.285156 -1.96875 3.515625 -2.015625 3.609375 -2.109375 C 3.703125 -2.203125 3.75 -2.425781 3.75 -2.78125 L 3.75 -10.828125 C 3.25 -10.828125 2.878906 -10.78125 2.640625 -10.6875 C 2.410156 -10.59375 2.257812 -10.398438 2.1875 -10.109375 C 2.125 -9.828125 2.09375 -9.394531 2.09375 -8.8125 L 0.375 -8.8125 Z M 0.375 -13.15625 "/></g></g></g><g fill="#502c27" fill-opacity="1"><g transform="translate(52.023788, 58.593026)"><g><path d="M 10.734375 -3.671875 C 10.734375 -2.453125 10.414062 -1.535156 9.78125 -0.921875 C 9.15625 -0.304688 8.132812 0 6.71875 0 L 0.484375 0 L 0.484375 -1.96875 C 0.835938 -1.96875 1.0625 -2.015625 1.15625 -2.109375 C 1.25 -2.203125 1.296875 -2.425781 1.296875 -2.78125 L 1.296875 -10.375 C 1.296875 -10.738281 1.25 -10.960938 1.15625 -11.046875 C 1.0625 -11.140625 0.835938 -11.1875 0.484375 -11.1875 L 0.484375 -13.15625 L 6.109375 -13.15625 C 7.535156 -13.15625 8.5625 -12.84375 9.1875 -12.21875 C 9.820312 -11.601562 10.140625 -10.679688 10.140625 -9.453125 C 10.140625 -8.273438 9.84375 -7.382812 9.25 -6.78125 C 10.238281 -6.238281 10.734375 -5.203125 10.734375 -3.671875 Z M 4.140625 -10.921875 L 4.140625 -7.6875 L 5.421875 -7.6875 C 6.078125 -7.6875 6.554688 -7.8125 6.859375 -8.0625 C 7.160156 -8.320312 7.3125 -8.734375 7.3125 -9.296875 C 7.3125 -9.847656 7.160156 -10.253906 6.859375 -10.515625 C 6.554688 -10.785156 6.078125 -10.921875 5.421875 -10.921875 Z M 4.140625 -5.46875 L 4.140625 -2.234375 L 6.015625 -2.234375 C 7.265625 -2.234375 7.890625 -2.773438 7.890625 -3.859375 C 7.890625 -4.929688 7.265625 -5.46875 6.015625 -5.46875 Z M 4.140625 -5.46875 "/></g></g></g><g fill="#502c27" fill-opacity="1"><g transform="translate(63.250437, 58.593026)"><g><path d="M 10.703125 -13.15625 L 10.703125 -8.890625 L 8.765625 -8.890625 C 8.765625 -9.503906 8.722656 -9.953125 8.640625 -10.234375 C 8.566406 -10.523438 8.390625 -10.707031 8.109375 -10.78125 C 7.828125 -10.851562 7.375 -10.890625 6.75 -10.890625 L 4.40625 -10.890625 L 4.40625 -7.703125 L 7.71875 -7.703125 L 7.71875 -5.453125 L 4.40625 -5.453125 L 4.40625 -2.25 L 6.75 -2.25 C 7.375 -2.25 7.828125 -2.285156 8.109375 -2.359375 C 8.390625 -2.441406 8.566406 -2.625 8.640625 -2.90625 C 8.722656 -3.195312 8.765625 -3.648438 8.765625 -4.265625 L 10.703125 -4.265625 L 10.703125 0 L 0.75 0 L 0.75 -1.96875 C 1.113281 -1.96875 1.335938 -2.015625 1.421875 -2.109375 C 1.515625 -2.203125 1.5625 -2.425781 1.5625 -2.78125 L 1.5625 -10.375 C 1.5625 -10.738281 1.515625 -10.960938 1.421875 -11.046875 C 1.335938 -11.140625 1.113281 -11.1875 0.75 -11.1875 L 0.75 -13.15625 Z M 10.703125 -13.15625 "/></g></g></g><g fill="#502c27" fill-opacity="1"><g transform="translate(74.477086, 58.593026)"><g><path d="M 10.703125 -13.15625 L 10.703125 -8.890625 L 8.765625 -8.890625 C 8.765625 -9.503906 8.722656 -9.953125 8.640625 -10.234375 C 8.566406 -10.523438 8.390625 -10.707031 8.109375 -10.78125 C 7.828125 -10.851562 7.375 -10.890625 6.75 -10.890625 L 4.40625 -10.890625 L 4.40625 -7.703125 L 7.71875 -7.703125 L 7.71875 -5.453125 L 4.40625 -5.453125 L 4.40625 -2.25 L 6.75 -2.25 C 7.375 -2.25 7.828125 -2.285156 8.109375 -2.359375 C 8.390625 -2.441406 8.566406 -2.625 8.640625 -2.90625 C 8.722656 -3.195312 8.765625 -3.648438 8.765625 -4.265625 L 10.703125 -4.265625 L 10.703125 0 L 0.75 0 L 0.75 -1.96875 C 1.113281 -1.96875 1.335938 -2.015625 1.421875 -2.109375 C 1.515625 -2.203125 1.5625 -2.425781 1.5625 -2.78125 L 1.5625 -10.375 C 1.5625 -10.738281 1.515625 -10.960938 1.421875 -11.046875 C 1.335938 -11.140625 1.113281 -11.1875 0.75 -11.1875 L 0.75 -13.15625 Z M 10.703125 -13.15625 "/></g></g></g><g fill="#502c27" fill-opacity="1"><g transform="translate(85.703735, 58.593026)"><g><path d="M 11.921875 -1.921875 L 11.921875 0 C 11.921875 0 11.785156 0.03125 11.515625 0.09375 C 11.253906 0.15625 10.867188 0.1875 10.359375 0.1875 C 9.628906 0.1875 9.0625 0.046875 8.65625 -0.234375 C 8.257812 -0.523438 7.960938 -0.988281 7.765625 -1.625 L 6.78125 -4.234375 C 6.65625 -4.585938 6.476562 -4.84375 6.25 -5 C 6.019531 -5.15625 5.648438 -5.234375 5.140625 -5.234375 L 4.421875 -5.234375 L 4.421875 -2.78125 C 4.421875 -2.425781 4.472656 -2.203125 4.578125 -2.109375 C 4.679688 -2.015625 4.910156 -1.96875 5.265625 -1.96875 L 5.265625 0 L 0.75 0 L 0.75 -1.96875 C 1.113281 -1.96875 1.34375 -2.015625 1.4375 -2.109375 C 1.539062 -2.203125 1.59375 -2.425781 1.59375 -2.78125 L 1.59375 -10.375 C 1.59375 -10.738281 1.539062 -10.960938 1.4375 -11.046875 C 1.34375 -11.140625 1.113281 -11.1875 0.75 -11.1875 L 0.75 -13.15625 L 6.65625 -13.15625 C 8.019531 -13.15625 9.039062 -12.84375 9.71875 -12.21875 C 10.40625 -11.601562 10.75 -10.648438 10.75 -9.359375 C 10.75 -8.492188 10.59375 -7.785156 10.28125 -7.234375 C 9.976562 -6.691406 9.519531 -6.289062 8.90625 -6.03125 C 9.050781 -5.863281 9.175781 -5.675781 9.28125 -5.46875 C 9.394531 -5.269531 9.488281 -5.054688 9.5625 -4.828125 L 10.390625 -2.75 C 10.515625 -2.394531 10.664062 -2.164062 10.84375 -2.0625 C 11.019531 -1.96875 11.378906 -1.921875 11.921875 -1.921875 Z M 4.421875 -10.921875 L 4.421875 -7.5 L 6.109375 -7.5 C 6.722656 -7.5 7.171875 -7.628906 7.453125 -7.890625 C 7.742188 -8.148438 7.890625 -8.582031 7.890625 -9.1875 C 7.890625 -10.34375 7.296875 -10.921875 6.109375 -10.921875 Z M 4.421875 -10.921875 "/></g></g></g><g fill="#502c27" fill-opacity="1"><g transform="translate(39.888706, 73.126477)"><g><path d="M 0.546875 -0.75 L 0.546875 -4.046875 L 2.53125 -4.046875 C 2.632812 -3.367188 2.898438 -2.867188 3.328125 -2.546875 C 3.753906 -2.222656 4.390625 -2.0625 5.234375 -2.0625 C 5.890625 -2.0625 6.367188 -2.1875 6.671875 -2.4375 C 6.984375 -2.6875 7.140625 -3.035156 7.140625 -3.484375 C 7.140625 -3.898438 7.019531 -4.234375 6.78125 -4.484375 C 6.539062 -4.734375 6.171875 -4.9375 5.671875 -5.09375 L 3.46875 -5.828125 C 2.53125 -6.097656 1.804688 -6.550781 1.296875 -7.1875 C 0.796875 -7.820312 0.546875 -8.648438 0.546875 -9.671875 C 0.546875 -12.117188 2.125 -13.34375 5.28125 -13.34375 C 6.15625 -13.34375 6.90625 -13.257812 7.53125 -13.09375 C 8.15625 -12.9375 8.640625 -12.78125 8.984375 -12.625 C 9.328125 -12.476562 9.5 -12.40625 9.5 -12.40625 L 9.5 -9.09375 L 7.53125 -9.09375 C 7.445312 -9.789062 7.203125 -10.296875 6.796875 -10.609375 C 6.398438 -10.921875 5.832031 -11.078125 5.09375 -11.078125 C 3.945312 -11.078125 3.375 -10.617188 3.375 -9.703125 C 3.375 -9.316406 3.476562 -8.988281 3.6875 -8.71875 C 3.90625 -8.445312 4.265625 -8.234375 4.765625 -8.078125 L 7.0625 -7.3125 C 8.03125 -7.019531 8.757812 -6.5625 9.25 -5.9375 C 9.738281 -5.320312 9.984375 -4.5 9.984375 -3.46875 C 9.984375 -2.382812 9.601562 -1.503906 8.84375 -0.828125 C 8.09375 -0.148438 6.847656 0.1875 5.109375 0.1875 C 4.117188 0.1875 3.285156 0.113281 2.609375 -0.03125 C 1.929688 -0.1875 1.414062 -0.34375 1.0625 -0.5 C 0.71875 -0.664062 0.546875 -0.75 0.546875 -0.75 Z M 0.546875 -0.75 "/></g></g></g><g fill="#502c27" fill-opacity="1"><g transform="translate(50.343262, 73.126477)"><g><path d="M 0.546875 -6.578125 C 0.546875 -8.910156 1.023438 -10.617188 1.984375 -11.703125 C 2.953125 -12.796875 4.421875 -13.34375 6.390625 -13.34375 C 7.429688 -13.34375 8.3125 -13.210938 9.03125 -12.953125 C 9.75 -12.691406 10.300781 -12.382812 10.6875 -12.03125 L 10.6875 -8.953125 L 8.71875 -8.953125 C 8.675781 -9.703125 8.453125 -10.234375 8.046875 -10.546875 C 7.640625 -10.859375 7.050781 -11.015625 6.28125 -11.015625 C 5.320312 -11.015625 4.597656 -10.675781 4.109375 -10 C 3.617188 -9.332031 3.375 -8.191406 3.375 -6.578125 C 3.375 -4.960938 3.617188 -3.816406 4.109375 -3.140625 C 4.597656 -2.460938 5.320312 -2.125 6.28125 -2.125 C 7.019531 -2.125 7.597656 -2.28125 8.015625 -2.59375 C 8.441406 -2.90625 8.675781 -3.441406 8.71875 -4.203125 L 10.6875 -4.203125 L 10.6875 -1.125 C 10.300781 -0.78125 9.75 -0.472656 9.03125 -0.203125 C 8.3125 0.0546875 7.429688 0.1875 6.390625 0.1875 C 4.410156 0.1875 2.941406 -0.351562 1.984375 -1.4375 C 1.023438 -2.519531 0.546875 -4.234375 0.546875 -6.578125 Z M 0.546875 -6.578125 "/></g></g></g><g fill="#502c27" fill-opacity="1"><g transform="translate(61.528177, 73.126477)"><g><path d="M 0.734375 -13.15625 L 5.21875 -13.15625 L 5.21875 -11.1875 C 4.875 -11.1875 4.648438 -11.140625 4.546875 -11.046875 C 4.441406 -10.960938 4.390625 -10.738281 4.390625 -10.375 L 4.390625 -7.71875 L 8.453125 -7.71875 L 8.453125 -10.375 C 8.453125 -10.738281 8.40625 -10.960938 8.3125 -11.046875 C 8.226562 -11.140625 8.003906 -11.1875 7.640625 -11.1875 L 7.640625 -13.15625 L 12.125 -13.15625 L 12.125 -11.1875 C 11.78125 -11.1875 11.554688 -11.140625 11.453125 -11.046875 C 11.347656 -10.960938 11.296875 -10.738281 11.296875 -10.375 L 11.296875 -2.78125 C 11.296875 -2.425781 11.347656 -2.203125 11.453125 -2.109375 C 11.554688 -2.015625 11.78125 -1.96875 12.125 -1.96875 L 12.125 0 L 7.640625 0 L 7.640625 -1.96875 C 8.003906 -1.96875 8.226562 -2.015625 8.3125 -2.109375 C 8.40625 -2.203125 8.453125 -2.425781 8.453125 -2.78125 L 8.453125 -5.421875 L 4.390625 -5.421875 L 4.390625 -2.78125 C 4.390625 -2.425781 4.441406 -2.203125 4.546875 -2.109375 C 4.648438 -2.015625 4.875 -1.96875 5.21875 -1.96875 L 5.21875 0 L 0.734375 0 L 0.734375 -1.96875 C 1.085938 -1.96875 1.3125 -2.015625 1.40625 -2.109375 C 1.507812 -2.203125 1.5625 -2.425781 1.5625 -2.78125 L 1.5625 -10.375 C 1.5625 -10.738281 1.507812 -10.960938 1.40625 -11.046875 C 1.3125 -11.140625 1.085938 -11.1875 0.734375 -11.1875 Z M 0.734375 -13.15625 "/></g></g></g><g fill="#502c27" fill-opacity="1"><g transform="translate(74.361613, 73.126477)"><g><path d="M 3.65625 -6.578125 C 3.65625 -5.410156 3.75 -4.5 3.9375 -3.84375 C 4.132812 -3.195312 4.425781 -2.75 4.8125 -2.5 C 5.195312 -2.25 5.679688 -2.125 6.265625 -2.125 C 6.847656 -2.125 7.332031 -2.25 7.71875 -2.5 C 8.113281 -2.75 8.40625 -3.195312 8.59375 -3.84375 C 8.78125 -4.5 8.875 -5.410156 8.875 -6.578125 C 8.875 -7.753906 8.78125 -8.660156 8.59375 -9.296875 C 8.40625 -9.941406 8.113281 -10.390625 7.71875 -10.640625 C 7.332031 -10.890625 6.847656 -11.015625 6.265625 -11.015625 C 5.679688 -11.015625 5.195312 -10.882812 4.8125 -10.625 C 4.425781 -10.375 4.132812 -9.925781 3.9375 -9.28125 C 3.75 -8.632812 3.65625 -7.734375 3.65625 -6.578125 Z M 0.546875 -6.578125 C 0.546875 -8.929688 1.003906 -10.644531 1.921875 -11.71875 C 2.847656 -12.800781 4.296875 -13.34375 6.265625 -13.34375 C 8.222656 -13.34375 9.664062 -12.800781 10.59375 -11.71875 C 11.519531 -10.644531 11.984375 -8.929688 11.984375 -6.578125 C 11.984375 -4.234375 11.519531 -2.519531 10.59375 -1.4375 C 9.664062 -0.351562 8.222656 0.1875 6.265625 0.1875 C 4.296875 0.1875 2.847656 -0.351562 1.921875 -1.4375 C 1.003906 -2.519531 0.546875 -4.234375 0.546875 -6.578125 Z M 0.546875 -6.578125 "/></g></g></g><g fill="#502c27" fill-opacity="1"><g transform="translate(86.840304, 73.126477)"><g><path d="M 3.65625 -6.578125 C 3.65625 -5.410156 3.75 -4.5 3.9375 -3.84375 C 4.132812 -3.195312 4.425781 -2.75 4.8125 -2.5 C 5.195312 -2.25 5.679688 -2.125 6.265625 -2.125 C 6.847656 -2.125 7.332031 -2.25 7.71875 -2.5 C 8.113281 -2.75 8.40625 -3.195312 8.59375 -3.84375 C 8.78125 -4.5 8.875 -5.410156 8.875 -6.578125 C 8.875 -7.753906 8.78125 -8.660156 8.59375 -9.296875 C 8.40625 -9.941406 8.113281 -10.390625 7.71875 -10.640625 C 7.332031 -10.890625 6.847656 -11.015625 6.265625 -11.015625 C 5.679688 -11.015625 5.195312 -10.882812 4.8125 -10.625 C 4.425781 -10.375 4.132812 -9.925781 3.9375 -9.28125 C 3.75 -8.632812 3.65625 -7.734375 3.65625 -6.578125 Z M 0.546875 -6.578125 C 0.546875 -8.929688 1.003906 -10.644531 1.921875 -11.71875 C 2.847656 -12.800781 4.296875 -13.34375 6.265625 -13.34375 C 8.222656 -13.34375 9.664062 -12.800781 10.59375 -11.71875 C 11.519531 -10.644531 11.984375 -8.929688 11.984375 -6.578125 C 11.984375 -4.234375 11.519531 -2.519531 10.59375 -1.4375 C 9.664062 -0.351562 8.222656 0.1875 6.265625 0.1875 C 4.296875 0.1875 2.847656 -0.351562 1.921875 -1.4375 C 1.003906 -2.519531 0.546875 -4.234375 0.546875 -6.578125 Z M 0.546875 -6.578125 "/></g></g></g><g fill="#502c27" fill-opacity="1"><g transform="translate(99.318995, 73.126477)"><g><path d="M 0.578125 -13.15625 L 5.046875 -13.15625 L 5.046875 -11.1875 C 4.703125 -11.1875 4.476562 -11.140625 4.375 -11.046875 C 4.28125 -10.960938 4.234375 -10.738281 4.234375 -10.375 L 4.234375 -2.3125 L 6.578125 -2.3125 C 7.203125 -2.3125 7.648438 -2.347656 7.921875 -2.421875 C 8.203125 -2.503906 8.378906 -2.691406 8.453125 -2.984375 C 8.535156 -3.273438 8.578125 -3.726562 8.578125 -4.34375 L 10.546875 -4.34375 L 10.546875 0 L 0.578125 0 L 0.578125 -1.96875 C 0.941406 -1.96875 1.171875 -2.015625 1.265625 -2.109375 C 1.359375 -2.203125 1.40625 -2.425781 1.40625 -2.78125 L 1.40625 -10.375 C 1.40625 -10.738281 1.359375 -10.960938 1.265625 -11.046875 C 1.171875 -11.140625 0.941406 -11.1875 0.578125 -11.1875 Z M 0.578125 -13.15625 "/></g></g></g><g clip-path="url(#e74b005628)"><g clip-path="url(#6900629a74)"><path fill="#502c27" d="M 61.394531 107.546875 L 90.949219 107.546875 L 90.949219 116.875 L 61.394531 116.875 Z M 61.394531 107.546875 " fill-opacity="1" fill-rule="nonzero"/></g></g><g clip-path="url(#6e1659f18b)"><g clip-path="url(#9bcad63d7a)"><g clip-path="url(#63f5fa4dbd)"><path fill="#502c27" d="M 97.246094 82.96875 L 95.148438 83.125 L 95.007812 81.203125 C 94.957031 80.53125 94.585938 79.945312 94.011719 79.617188 C 94.011719 79.546875 94.011719 79.476562 94.003906 79.410156 C 93.949219 78.648438 93.53125 77.941406 92.855469 77.476562 C 92.246094 77.054688 91.476562 76.855469 90.691406 76.914062 C 90.3125 76.941406 89.941406 77.03125 89.597656 77.171875 C 88.988281 76.367188 87.921875 75.910156 86.789062 75.996094 C 86.132812 76.042969 85.519531 76.265625 85.019531 76.632812 C 84.390625 75.902344 83.375 75.496094 82.308594 75.574219 C 81.074219 75.664062 80.003906 76.398438 79.582031 77.40625 C 79.289062 77.351562 78.984375 77.335938 78.675781 77.359375 C 76.960938 77.488281 75.652344 78.8125 75.765625 80.3125 C 75.777344 80.488281 75.808594 80.660156 75.859375 80.828125 C 75.070312 81.394531 74.628906 82.261719 74.695312 83.160156 C 74.761719 84.066406 75.339844 84.871094 76.21875 85.3125 L 77.359375 100.765625 C 77.503906 102.726562 79.21875 104.203125 81.179688 104.058594 L 93.050781 103.183594 C 95.011719 103.039062 96.488281 101.324219 96.34375 99.363281 L 96.316406 98.996094 L 98.414062 98.84375 C 100.828125 98.664062 102.648438 96.558594 102.46875 94.144531 L 101.945312 87.023438 C 101.765625 84.609375 99.65625 82.789062 97.246094 82.96875 Z M 97.246094 82.96875 " fill-opacity="1" fill-rule="evenodd"/></g></g></g><g clip-path="url(#bbc99f8317)"><g clip-path="url(#9539a3df5c)"><g clip-path="url(#3929f71ef5)"><path fill="#502c27" d="M 97.273438 83.339844 L 94.804688 83.523438 L 94.636719 81.230469 C 94.589844 80.609375 94.195312 80.074219 93.625 79.839844 C 93.640625 79.707031 93.644531 79.570312 93.636719 79.4375 C 93.585938 78.785156 93.226562 78.183594 92.644531 77.785156 C 92.105469 77.410156 91.421875 77.234375 90.71875 77.285156 C 90.273438 77.320312 89.84375 77.445312 89.464844 77.648438 C 88.992188 76.8125 87.949219 76.285156 86.816406 76.367188 C 86.089844 76.421875 85.425781 76.71875 84.953125 77.171875 C 84.464844 76.375 83.449219 75.863281 82.335938 75.945312 C 81.085938 76.039062 80.082031 76.839844 79.828125 77.847656 C 79.472656 77.742188 79.09375 77.703125 78.703125 77.730469 C 77.191406 77.84375 76.039062 78.988281 76.136719 80.285156 C 76.152344 80.527344 76.214844 80.761719 76.3125 80.980469 C 75.492188 81.453125 75.003906 82.269531 75.066406 83.136719 C 75.128906 83.976562 75.710938 84.710938 76.574219 85.066406 L 77.710938 100.460938 L 77.730469 100.738281 C 77.859375 102.492188 79.394531 103.816406 81.152344 103.6875 L 93.023438 102.8125 C 94.78125 102.683594 96.101562 101.148438 95.972656 99.390625 L 95.953125 99.113281 L 95.917969 98.65625 L 98.386719 98.472656 C 100.597656 98.308594 102.261719 96.382812 102.097656 94.171875 L 101.574219 87.050781 C 101.410156 84.839844 99.480469 83.175781 97.273438 83.339844 Z M 97.273438 83.339844 " fill-opacity="1" fill-rule="evenodd"/></g></g></g><g clip-path="url(#21ef20801b)"><g clip-path="url(#12005ca41d)"><g clip-path="url(#4aeb76b778)"><path fill="#e4c50e" d="M 90.300781 81.761719 Z M 78.757812 78.472656 C 77.65625 78.550781 76.8125 79.339844 76.878906 80.230469 C 76.898438 80.5 76.996094 80.75 77.171875 80.972656 C 77.234375 81.050781 77.253906 81.15625 77.226562 81.253906 C 77.199219 81.347656 77.128906 81.425781 77.035156 81.460938 C 76.25 81.746094 75.757812 82.398438 75.808594 83.078125 C 75.855469 83.71875 76.363281 84.238281 77.058594 84.449219 C 77.070312 84.449219 77.078125 84.453125 77.085938 84.457031 C 77.34375 84.53125 77.632812 84.5625 77.929688 84.539062 C 78.117188 84.527344 78.300781 84.492188 78.476562 84.4375 C 78.5 84.429688 78.53125 84.421875 78.558594 84.421875 C 78.566406 84.417969 78.570312 84.417969 78.578125 84.417969 L 78.589844 84.417969 L 78.59375 84.421875 L 78.613281 84.421875 C 78.65625 84.425781 78.703125 84.441406 78.738281 84.464844 L 78.746094 84.464844 L 78.75 84.46875 L 78.753906 84.46875 L 78.757812 84.472656 C 78.816406 84.511719 78.859375 84.570312 78.882812 84.636719 C 78.890625 84.667969 78.894531 84.695312 78.898438 84.722656 L 79.226562 89.203125 C 79.265625 89.703125 79.699219 90.078125 80.199219 90.042969 C 80.703125 90.007812 81.078125 89.570312 81.039062 89.070312 L 80.652344 83.777344 C 80.648438 83.761719 80.648438 83.75 80.648438 83.738281 L 80.648438 83.734375 C 80.648438 83.710938 80.652344 83.691406 80.65625 83.671875 L 80.660156 83.671875 L 80.660156 83.660156 C 80.679688 83.597656 80.714844 83.542969 80.761719 83.503906 L 80.769531 83.5 C 80.816406 83.460938 80.875 83.4375 80.941406 83.433594 C 80.960938 83.429688 80.984375 83.429688 81.003906 83.433594 C 81.152344 83.449219 81.304688 83.453125 81.453125 83.441406 C 82.242188 83.382812 82.929688 82.953125 83.210938 82.347656 C 83.246094 82.269531 83.316406 82.207031 83.398438 82.179688 C 83.480469 82.15625 83.570312 82.164062 83.648438 82.207031 C 84.023438 82.414062 84.46875 82.507812 84.933594 82.476562 C 85.289062 82.449219 85.636719 82.34375 85.929688 82.179688 C 86.054688 82.109375 86.207031 82.128906 86.308594 82.230469 C 86.714844 82.644531 87.355469 82.863281 88.015625 82.816406 C 88.769531 82.761719 89.445312 82.355469 89.742188 81.785156 C 89.789062 81.683594 89.886719 81.609375 90.003906 81.597656 C 90.09375 81.59375 90.179688 81.625 90.242188 81.683594 L 90.253906 81.695312 L 90.257812 81.695312 C 90.273438 81.714844 90.285156 81.730469 90.296875 81.75 L 90.304688 81.765625 C 90.328125 81.808594 90.34375 81.855469 90.34375 81.902344 L 90.527344 84.375 C 90.554688 84.769531 90.898438 85.0625 91.289062 85.035156 C 91.683594 85.007812 91.980469 84.664062 91.949219 84.269531 L 91.734375 81.320312 C 91.71875 81.191406 91.78125 81.0625 91.902344 81.003906 C 92.351562 80.78125 92.667969 80.441406 92.8125 80.058594 C 92.816406 80.046875 92.820312 80.035156 92.824219 80.019531 C 92.882812 79.847656 92.910156 79.671875 92.894531 79.488281 C 92.828125 78.601562 91.878906 77.941406 90.777344 78.023438 C 90.28125 78.058594 89.816406 78.242188 89.46875 78.539062 C 89.386719 78.609375 89.269531 78.632812 89.167969 78.597656 C 89.0625 78.5625 88.984375 78.476562 88.960938 78.371094 C 88.78125 77.574219 87.882812 77.03125 86.875 77.105469 C 86.078125 77.164062 85.382812 77.597656 85.109375 78.210938 C 85.050781 78.339844 84.914062 78.414062 84.773438 78.390625 C 84.632812 78.371094 84.527344 78.253906 84.511719 78.113281 C 84.425781 77.246094 83.476562 76.605469 82.394531 76.683594 C 81.292969 76.765625 80.449219 77.550781 80.515625 78.441406 C 80.523438 78.554688 80.46875 78.664062 80.371094 78.726562 C 80.273438 78.789062 80.152344 78.792969 80.050781 78.738281 C 79.667969 78.53125 79.222656 78.4375 78.757812 78.472656 Z M 78.757812 78.472656 " fill-opacity="1" fill-rule="evenodd"/></g></g></g><g clip-path="url(#09c931724e)"><g clip-path="url(#ceb2ab5fe0)"><g clip-path="url(#c1f0bf40b0)"><path fill="#e4c50e" d="M 83.621094 82.890625 C 83.1875 83.550781 82.386719 84 81.496094 84.066406 C 81.429688 84.070312 81.363281 84.074219 81.296875 84.074219 L 81.664062 89.023438 C 81.722656 89.867188 81.085938 90.605469 80.242188 90.667969 C 79.398438 90.730469 78.660156 90.09375 78.597656 89.25 L 78.292969 85.125 C 78.1875 85.144531 78.082031 85.15625 77.972656 85.164062 C 77.75 85.179688 77.535156 85.171875 77.324219 85.144531 L 78.394531 99.660156 L 95.15625 98.425781 L 95.144531 98.277344 L 95 96.335938 L 94.238281 85.96875 L 94.238281 85.964844 L 94.09375 84.007812 L 94.09375 84.003906 L 93.890625 81.28125 C 93.867188 80.925781 93.621094 80.621094 93.296875 80.507812 C 93.097656 80.886719 92.78125 81.21875 92.367188 81.464844 L 92.570312 84.222656 C 92.625 84.960938 92.070312 85.605469 91.332031 85.660156 C 90.59375 85.714844 89.949219 85.15625 89.894531 84.421875 L 89.773438 82.738281 C 89.324219 83.136719 88.71875 83.390625 88.058594 83.441406 C 87.300781 83.496094 86.558594 83.269531 86.03125 82.828125 C 85.703125 82.980469 85.34375 83.070312 84.976562 83.097656 C 84.5 83.136719 84.039062 83.0625 83.621094 82.890625 Z M 88.972656 95.472656 L 88.398438 87.699219 C 88.386719 87.527344 88.515625 87.375 88.6875 87.363281 C 88.859375 87.351562 89.011719 87.480469 89.023438 87.652344 L 89.597656 95.425781 C 89.609375 95.601562 89.480469 95.75 89.304688 95.761719 C 89.132812 95.777344 88.984375 95.648438 88.972656 95.472656 Z M 83.507812 88.0625 L 84.082031 95.835938 C 84.09375 96.007812 83.964844 96.15625 83.792969 96.171875 C 83.621094 96.183594 83.46875 96.054688 83.457031 95.882812 L 82.882812 88.105469 C 82.871094 87.933594 83 87.785156 83.175781 87.769531 C 83.347656 87.757812 83.496094 87.890625 83.507812 88.0625 Z M 83.507812 88.0625 " fill-opacity="1" fill-rule="evenodd"/></g></g></g><g clip-path="url(#a0b7b9002b)"><g clip-path="url(#8dcf3fac3c)"><g clip-path="url(#a3403151bc)"><path fill="#e4c50e" d="M 94.742188 84.273438 L 94.839844 85.605469 L 97.125 85.4375 C 98.398438 85.34375 99.503906 86.300781 99.597656 87.570312 L 100.070312 93.960938 C 100.164062 95.230469 99.207031 96.339844 97.9375 96.433594 L 95.648438 96.601562 L 95.746094 97.921875 L 98.332031 97.730469 C 100.132812 97.597656 101.488281 96.023438 101.355469 94.226562 L 100.832031 87.105469 C 100.699219 85.304688 99.125 83.949219 97.324219 84.082031 Z M 94.742188 84.273438 " fill-opacity="1" fill-rule="evenodd"/></g></g></g><g clip-path="url(#80d4a4f018)"><g clip-path="url(#a4f4b63e1b)"><g clip-path="url(#0820af76de)"><path fill="#e4c50e" d="M 95.203125 99.050781 L 78.441406 100.285156 L 78.472656 100.679688 C 78.570312 102.027344 79.75 103.042969 81.09375 102.945312 L 92.96875 102.070312 C 94.316406 101.96875 95.332031 100.792969 95.234375 99.445312 Z M 95.203125 99.050781 " fill-opacity="1" fill-rule="evenodd"/></g></g></g><g clip-path="url(#ff3a4c38c4)"><g clip-path="url(#83a11d9b2d)"><g clip-path="url(#279b3e7828)"><path fill="#502c27" d="M 52.691406 83.035156 L 54.785156 83.183594 L 54.921875 81.261719 C 54.96875 80.589844 55.339844 80.003906 55.914062 79.671875 C 55.910156 79.601562 55.914062 79.53125 55.917969 79.464844 C 55.972656 78.703125 56.386719 77.996094 57.0625 77.527344 C 57.667969 77.105469 58.4375 76.902344 59.222656 76.960938 C 59.601562 76.984375 59.972656 77.074219 60.320312 77.214844 C 60.925781 76.40625 61.992188 75.949219 63.125 76.027344 C 63.777344 76.074219 64.394531 76.296875 64.898438 76.660156 C 65.519531 75.929688 66.539062 75.519531 67.601562 75.59375 C 68.839844 75.679688 69.910156 76.410156 70.335938 77.417969 C 70.628906 77.363281 70.929688 77.34375 71.238281 77.367188 C 72.957031 77.488281 74.265625 78.808594 74.160156 80.308594 C 74.148438 80.488281 74.117188 80.660156 74.066406 80.828125 C 74.859375 81.390625 75.304688 82.257812 75.238281 83.15625 C 75.175781 84.0625 74.601562 84.871094 73.722656 85.3125 L 72.628906 100.769531 C 72.492188 102.730469 70.785156 104.210938 68.824219 104.074219 L 56.945312 103.234375 C 54.984375 103.097656 53.503906 101.390625 53.640625 99.425781 L 53.667969 99.058594 L 51.570312 98.910156 C 49.15625 98.742188 47.328125 96.640625 47.5 94.226562 L 48.003906 87.105469 C 48.175781 84.6875 50.277344 82.863281 52.691406 83.035156 Z M 52.691406 83.035156 " fill-opacity="1" fill-rule="evenodd"/></g></g></g><g clip-path="url(#2fffd3dc09)"><g clip-path="url(#0c6a797026)"><g clip-path="url(#d7786839a1)"><path fill="#502c27" d="M 52.664062 83.40625 L 55.132812 83.578125 L 55.292969 81.285156 C 55.335938 80.667969 55.730469 80.128906 56.300781 79.890625 C 56.28125 79.757812 56.277344 79.625 56.289062 79.488281 C 56.335938 78.839844 56.691406 78.238281 57.273438 77.835938 C 57.8125 77.460938 58.496094 77.28125 59.195312 77.332031 C 59.644531 77.363281 60.074219 77.488281 60.453125 77.691406 C 60.925781 76.851562 61.964844 76.320312 63.097656 76.398438 C 63.824219 76.453125 64.488281 76.746094 64.964844 77.199219 C 65.449219 76.402344 66.460938 75.886719 67.574219 75.964844 C 68.828125 76.054688 69.835938 76.851562 70.09375 77.859375 C 70.445312 77.753906 70.824219 77.710938 71.214844 77.738281 C 72.726562 77.847656 73.882812 78.988281 73.789062 80.285156 C 73.773438 80.527344 73.714844 80.761719 73.617188 80.980469 C 74.4375 81.449219 74.929688 82.265625 74.867188 83.132812 C 74.808594 83.972656 74.230469 84.710938 73.367188 85.066406 L 72.277344 100.464844 L 72.257812 100.742188 C 72.136719 102.5 70.605469 103.828125 68.847656 103.703125 L 56.972656 102.863281 C 55.214844 102.742188 53.886719 101.210938 54.011719 99.453125 L 54.03125 99.175781 L 54.0625 98.714844 L 51.59375 98.542969 C 49.386719 98.386719 47.714844 96.460938 47.871094 94.253906 L 48.375 87.132812 C 48.53125 84.921875 50.453125 83.25 52.664062 83.40625 Z M 52.664062 83.40625 " fill-opacity="1" fill-rule="evenodd"/></g></g></g><g clip-path="url(#970fd9f342)"><g clip-path="url(#1fb8cf9e7d)"><g clip-path="url(#f17e070e2f)"><path fill="#e4c50e" d="M 59.628906 81.808594 Z M 71.160156 78.480469 C 72.265625 78.558594 73.109375 79.34375 73.046875 80.230469 C 73.03125 80.5 72.929688 80.753906 72.753906 80.976562 C 72.695312 81.054688 72.671875 81.160156 72.703125 81.257812 C 72.730469 81.351562 72.800781 81.429688 72.894531 81.464844 C 73.679688 81.746094 74.175781 82.394531 74.125 83.078125 C 74.082031 83.71875 73.574219 84.238281 72.878906 84.453125 C 72.871094 84.453125 72.863281 84.457031 72.855469 84.457031 C 72.59375 84.535156 72.308594 84.566406 72.011719 84.546875 C 71.824219 84.53125 71.640625 84.5 71.464844 84.445312 C 71.4375 84.4375 71.410156 84.429688 71.378906 84.425781 C 71.375 84.425781 71.367188 84.425781 71.359375 84.425781 L 71.34375 84.425781 L 71.339844 84.429688 L 71.328125 84.429688 C 71.28125 84.433594 71.238281 84.449219 71.199219 84.472656 L 71.191406 84.472656 L 71.183594 84.480469 L 71.179688 84.480469 C 71.125 84.519531 71.078125 84.578125 71.058594 84.644531 C 71.046875 84.675781 71.042969 84.703125 71.042969 84.730469 L 70.726562 89.214844 C 70.691406 89.714844 70.257812 90.089844 69.753906 90.054688 C 69.253906 90.019531 68.878906 89.585938 68.914062 89.085938 L 69.285156 83.789062 C 69.289062 83.777344 69.289062 83.765625 69.289062 83.75 L 69.289062 83.746094 C 69.285156 83.726562 69.285156 83.707031 69.277344 83.6875 L 69.277344 83.675781 L 69.273438 83.671875 C 69.257812 83.609375 69.222656 83.558594 69.171875 83.519531 L 69.167969 83.511719 C 69.121094 83.476562 69.0625 83.453125 68.996094 83.445312 C 68.972656 83.445312 68.953125 83.445312 68.929688 83.449219 C 68.785156 83.464844 68.632812 83.46875 68.484375 83.457031 C 67.695312 83.402344 67.003906 82.976562 66.722656 82.371094 C 66.683594 82.289062 66.617188 82.230469 66.535156 82.203125 C 66.449219 82.175781 66.359375 82.1875 66.285156 82.230469 C 65.90625 82.441406 65.464844 82.535156 65 82.5 C 64.644531 82.476562 64.296875 82.375 64.003906 82.207031 C 63.878906 82.136719 63.722656 82.160156 63.625 82.261719 C 63.21875 82.679688 62.582031 82.898438 61.917969 82.851562 C 61.164062 82.800781 60.484375 82.398438 60.1875 81.824219 C 60.140625 81.726562 60.042969 81.652344 59.925781 81.640625 C 59.835938 81.636719 59.75 81.667969 59.691406 81.726562 L 59.6875 81.726562 L 59.675781 81.738281 L 59.675781 81.742188 C 59.660156 81.757812 59.644531 81.773438 59.632812 81.792969 L 59.625 81.808594 C 59.601562 81.851562 59.589844 81.898438 59.589844 81.945312 L 59.414062 84.417969 C 59.386719 84.8125 59.042969 85.109375 58.648438 85.082031 C 58.257812 85.054688 57.960938 84.710938 57.988281 84.320312 L 58.195312 81.367188 C 58.210938 81.242188 58.144531 81.113281 58.023438 81.054688 C 57.578125 80.832031 57.257812 80.496094 57.113281 80.109375 C 57.109375 80.097656 57.105469 80.085938 57.101562 80.074219 C 57.039062 79.902344 57.015625 79.722656 57.027344 79.539062 C 57.089844 78.652344 58.039062 77.992188 59.144531 78.070312 C 59.636719 78.105469 60.101562 78.285156 60.453125 78.578125 C 60.535156 78.652344 60.648438 78.671875 60.753906 78.636719 C 60.855469 78.601562 60.933594 78.515625 60.957031 78.410156 C 61.136719 77.613281 62.035156 77.066406 63.042969 77.136719 C 63.839844 77.195312 64.535156 77.625 64.808594 78.238281 C 64.871094 78.367188 65.007812 78.441406 65.148438 78.417969 C 65.289062 78.394531 65.394531 78.28125 65.40625 78.140625 C 65.492188 77.269531 66.4375 76.625 67.519531 76.703125 C 68.621094 76.78125 69.46875 77.566406 69.40625 78.453125 C 69.398438 78.570312 69.453125 78.679688 69.550781 78.742188 C 69.648438 78.800781 69.769531 78.804688 69.871094 78.75 C 70.253906 78.539062 70.699219 78.445312 71.160156 78.480469 Z M 71.160156 78.480469 " fill-opacity="1" fill-rule="evenodd"/></g></g></g><g clip-path="url(#ea9601ec42)"><g clip-path="url(#c519d024e4)"><g clip-path="url(#c8ae5a994a)"><path fill="#e4c50e" d="M 66.3125 82.914062 C 66.75 83.570312 67.550781 84.019531 68.441406 84.082031 C 68.507812 84.089844 68.574219 84.089844 68.640625 84.089844 L 68.292969 89.042969 C 68.230469 89.886719 68.871094 90.621094 69.714844 90.679688 C 70.558594 90.742188 71.296875 90.101562 71.355469 89.257812 L 71.648438 85.128906 C 71.753906 85.148438 71.859375 85.164062 71.96875 85.171875 C 72.191406 85.1875 72.40625 85.175781 72.617188 85.148438 L 71.589844 99.667969 L 54.828125 98.484375 L 54.835938 98.335938 L 54.976562 96.394531 L 55.707031 86.023438 L 55.707031 86.019531 L 55.84375 84.0625 L 55.84375 84.058594 L 56.039062 81.339844 C 56.0625 80.980469 56.304688 80.675781 56.632812 80.558594 C 56.828125 80.9375 57.148438 81.269531 57.5625 81.515625 L 57.367188 84.273438 C 57.316406 85.011719 57.875 85.652344 58.613281 85.707031 C 59.347656 85.757812 59.992188 85.199219 60.042969 84.460938 L 60.164062 82.78125 C 60.609375 83.179688 61.214844 83.429688 61.878906 83.476562 C 62.636719 83.53125 63.375 83.300781 63.902344 82.859375 C 64.230469 83.007812 64.589844 83.101562 64.957031 83.125 C 65.433594 83.160156 65.898438 83.085938 66.3125 82.914062 Z M 61.003906 95.511719 L 61.550781 87.738281 C 61.5625 87.566406 61.433594 87.414062 61.261719 87.402344 C 61.089844 87.390625 60.9375 87.519531 60.925781 87.691406 L 60.378906 95.46875 C 60.367188 95.640625 60.496094 95.792969 60.667969 95.804688 C 60.839844 95.816406 60.992188 95.6875 61.003906 95.511719 Z M 66.441406 88.082031 L 65.890625 95.859375 C 65.878906 96.03125 66.007812 96.183594 66.183594 96.195312 C 66.355469 96.207031 66.503906 96.078125 66.515625 95.902344 L 67.066406 88.128906 C 67.078125 87.953125 66.949219 87.804688 66.777344 87.792969 C 66.601562 87.78125 66.453125 87.910156 66.441406 88.082031 Z M 66.441406 88.082031 " fill-opacity="1" fill-rule="evenodd"/></g></g></g><g clip-path="url(#076273acf4)"><g clip-path="url(#e175ca7014)"><g clip-path="url(#bbbc82bd3f)"><path fill="#e4c50e" d="M 55.199219 84.328125 L 55.101562 85.664062 L 52.816406 85.503906 C 51.546875 85.414062 50.441406 86.375 50.351562 87.644531 L 49.898438 94.035156 C 49.808594 95.304688 50.769531 96.410156 52.039062 96.5 L 54.328125 96.660156 L 54.234375 97.980469 L 51.648438 97.796875 C 49.847656 97.671875 48.488281 96.101562 48.613281 94.304688 L 49.117188 87.183594 C 49.246094 85.382812 50.8125 84.019531 52.613281 84.148438 Z M 55.199219 84.328125 " fill-opacity="1" fill-rule="evenodd"/></g></g></g><g clip-path="url(#6ecfc49365)"><g clip-path="url(#4d7cf2e45c)"><g clip-path="url(#99600d04f1)"><path fill="#e4c50e" d="M 54.78125 99.109375 L 71.546875 100.292969 L 71.519531 100.6875 C 71.421875 102.035156 70.25 103.054688 68.902344 102.960938 L 57.023438 102.121094 C 55.675781 102.027344 54.660156 100.851562 54.753906 99.503906 Z M 54.78125 99.109375 " fill-opacity="1" fill-rule="evenodd"/></g></g></g><g clip-path="url(#bb47711a7a)"><path fill="#502c27" d="M 38.457031 63.773438 L 38.835938 63.394531 C 39.128906 63.101562 39.128906 62.628906 38.835938 62.335938 C 38.542969 62.042969 38.070312 62.042969 37.777344 62.335938 L 37.398438 62.714844 L 37.019531 62.335938 C 36.726562 62.042969 36.253906 62.042969 35.960938 62.335938 C 35.671875 62.628906 35.671875 63.101562 35.960938 63.394531 L 36.339844 63.773438 L 35.960938 64.148438 C 35.671875 64.441406 35.671875 64.914062 35.960938 65.207031 C 36.253906 65.5 36.726562 65.5 37.019531 65.207031 L 37.398438 64.828125 L 37.777344 65.207031 C 38.070312 65.5 38.542969 65.5 38.835938 65.207031 C 39.128906 64.914062 39.128906 64.441406 38.835938 64.148438 Z M 38.457031 63.773438 " fill-opacity="1" fill-rule="nonzero"/></g><g clip-path="url(#a373f56b20)"><path fill="#502c27" d="M 113.660156 63.773438 L 114.039062 63.394531 C 114.328125 63.101562 114.328125 62.628906 114.039062 62.335938 C 113.746094 62.042969 113.269531 62.042969 112.980469 62.335938 L 112.601562 62.714844 L 112.222656 62.335938 C 111.929688 62.042969 111.457031 62.042969 111.164062 62.335938 C 110.871094 62.628906 110.871094 63.101562 111.164062 63.394531 L 111.542969 63.773438 L 111.164062 64.148438 C 110.871094 64.441406 110.871094 64.914062 111.164062 65.207031 C 111.457031 65.5 111.929688 65.5 112.222656 65.207031 L 112.601562 64.828125 L 112.980469 65.207031 C 113.269531 65.5 113.746094 65.5 114.039062 65.207031 C 114.328125 64.914062 114.328125 64.441406 114.039062 64.148438 Z M 113.660156 63.773438 " fill-opacity="1" fill-rule="nonzero"/></g><g clip-path="url(#01c4ac519e)"><path fill="#502c27" d="M 40.65625 86.414062 L 41.1875 88.207031 L 42.671875 87.066406 L 42.042969 88.832031 L 43.914062 88.78125 L 42.371094 89.835938 L 43.914062 90.894531 L 42.042969 90.84375 L 42.671875 92.609375 L 41.1875 91.464844 L 40.65625 93.261719 L 40.128906 91.464844 L 38.644531 92.609375 L 39.269531 90.84375 L 37.398438 90.894531 L 38.945312 89.835938 L 37.398438 88.78125 L 39.269531 88.832031 L 38.644531 87.066406 L 40.128906 88.207031 Z M 40.65625 86.414062 " fill-opacity="1" fill-rule="nonzero"/></g><g clip-path="url(#02a4b92f5d)"><path fill="#502c27" d="M 109.332031 86.414062 L 109.863281 88.207031 L 111.347656 87.066406 L 110.71875 88.832031 L 112.589844 88.78125 L 111.046875 89.835938 L 112.589844 90.894531 L 110.71875 90.84375 L 111.347656 92.609375 L 109.863281 91.464844 L 109.332031 93.261719 L 108.804688 91.464844 L 107.320312 92.609375 L 107.945312 90.84375 L 106.074219 90.894531 L 107.621094 89.835938 L 106.074219 88.78125 L 107.945312 88.832031 L 107.320312 87.066406 L 108.804688 88.207031 Z M 109.332031 86.414062 " fill-opacity="1" fill-rule="nonzero"/></g></svg>